<svg width="20" height="20" viewBox="0 0 20 20" fill="none" xmlns="http://www.w3.org/2000/svg">
<path d="M10 0C4.47715 0 0 4.47715 0 10C0 15.5228 4.47715 20 10 20C15.5228 20 20 15.5228 20 10C19.9936 4.47982 15.5202 0.00642897 10 0Z" fill="#5243C2" fill-opacity="0.15"/>
<path d="M15.7725 6.83334L10.0684 14.5742C9.93234 14.7547 9.72948 14.8729 9.50539 14.9024C9.2813 14.9319 9.05478 14.87 8.87671 14.7308L4.80338 11.4742C4.44393 11.1865 4.38573 10.662 4.67338 10.3025C4.96102 9.94306 5.4856 9.88486 5.84504 10.1725L9.24171 12.89L14.4309 5.84751C14.601 5.59217 14.8978 5.45099 15.2032 5.48004C15.5087 5.50909 15.7735 5.70365 15.8925 5.98649C16.0115 6.26932 15.9654 6.59466 15.7725 6.83334Z" fill="#7B72C1"/>
</svg>
