<svg width="138" height="30" viewBox="0 0 138 30" fill="none" xmlns="http://www.w3.org/2000/svg">
<path d="M0.368982 0V9.3501H1.98001L1.98001 1.61103H21.3414V18.7084C21.3414 19.9798 21.0909 21.2387 20.6044 22.4132C20.1179 23.5878 19.4048 24.655 18.5058 25.554C17.6069 26.4529 16.5396 27.166 15.3651 27.6526C14.1905 28.139 12.9316 28.3895 11.6603 28.3895C10.389 28.3895 9.13005 28.139 7.9555 27.6526C6.78094 27.166 5.7137 26.4529 4.81474 25.554C3.91578 24.655 3.20267 23.5878 2.71615 22.4132C2.22963 21.2387 1.97922 19.9798 1.97922 18.7084V17.3689H8.05041V18.7084C8.05041 19.6654 8.43057 20.5832 9.10726 21.2599C9.78392 21.9366 10.7017 22.3167 11.6587 22.3167C12.6157 22.3167 13.5335 21.9366 14.2101 21.2599C14.8868 20.5832 15.267 19.6654 15.267 18.7084V7.68355H8.0512V9.3501H13.6028V18.7084C13.6028 19.2237 13.3981 19.7178 13.0338 20.0822C12.6694 20.4465 12.1753 20.6512 11.66 20.6512C11.1448 20.6512 10.6506 20.4465 10.2862 20.0822C9.92191 19.7178 9.71722 19.2237 9.71722 18.7084V15.701H1.97895H0.36792V18.7076C0.36792 21.7025 1.55764 24.5747 3.67533 26.6924C5.79305 28.8103 8.66525 30 11.6602 30C14.655 30 17.5273 28.8103 19.645 26.6924C21.7627 24.5747 22.9524 21.7025 22.9524 18.7076V0H0.368982Z" fill="#231D4F"/>
<path d="M11.6623 23.7036C10.3373 23.7026 9.06684 23.1759 8.12973 22.2392C7.1926 21.3024 6.66538 20.0322 6.66376 18.7072H5.00013C5.00013 20.4738 5.70192 22.1681 6.95114 23.4173C8.20033 24.6665 9.89464 25.3683 11.6613 25.3683C13.4279 25.3683 15.1222 24.6665 16.3714 23.4173C17.6206 22.1681 18.3224 20.4738 18.3224 18.7072V4.62891H3.05555V9.34805H4.71917V6.29333H16.6564V18.7061C16.6556 20.0307 16.1292 21.3008 15.193 22.2377C14.2567 23.1747 12.9869 23.7019 11.6623 23.7036Z" fill="#BB6BD9"/>
<path d="M40.7364 22.9928C40.1577 23.8328 39.4577 24.3928 38.6364 24.6728C37.8337 24.9342 36.9471 24.9902 35.9764 24.8408C35.0057 24.7102 33.9977 24.4582 32.9524 24.0848L33.8764 20.8088C34.4737 21.0515 35.0617 21.2288 35.6404 21.3408C36.2377 21.4342 36.7604 21.4435 37.2084 21.3688C37.8617 21.2755 38.2631 20.8462 38.4124 20.0808C38.5617 19.3155 38.6364 18.2982 38.6364 17.0288V5.18485H41.9124V17.0288C41.9124 18.3728 41.8284 19.5395 41.6604 20.5288C41.4924 21.5182 41.1844 22.3395 40.7364 22.9928Z" fill="#231D4F"/>
<path d="M48.7553 24.9248C47.3367 24.8502 46.2633 24.4488 45.5353 23.7208C44.8073 22.9742 44.4433 21.9475 44.4433 20.6408C44.4433 19.6888 44.686 18.8768 45.1713 18.2048C45.6567 17.5142 46.3007 16.9728 47.1033 16.5808C47.906 16.1888 48.7927 15.9462 49.7633 15.8528C50.7527 15.7595 51.7513 15.8248 52.7593 16.0488V15.1808C52.7593 14.5835 52.5167 14.1542 52.0313 13.8928C51.546 13.6315 50.9487 13.5102 50.2393 13.5288C49.5487 13.5475 48.8487 13.6875 48.1393 13.9488C47.4487 14.1915 46.8887 14.5462 46.4593 15.0128L44.5833 12.9688C45.2927 12.2782 46.1327 11.7368 47.1033 11.3448C48.074 10.9528 49.0727 10.7288 50.0993 10.6728C51.1447 10.6168 52.1247 10.7382 53.0393 11.0368C53.9727 11.3355 54.738 11.8208 55.3353 12.4928C55.802 13.0155 56.0633 13.7062 56.1193 14.5648C56.1753 15.4235 56.2033 16.3662 56.2033 17.3928V24.7848H52.7873V23.4968C52.2087 24.0382 51.5647 24.4208 50.8553 24.6448C50.146 24.8502 49.446 24.9435 48.7553 24.9248ZM52.6753 20.8368V18.4288C50.734 18.2795 49.3807 18.4008 48.6153 18.7928C47.8687 19.1848 47.4953 19.7915 47.4953 20.6128C47.4953 21.1355 47.6727 21.5182 48.0273 21.7608C48.4007 21.9848 48.858 22.0968 49.3993 22.0968C49.9593 22.0782 50.5287 21.9662 51.1073 21.7608C51.7047 21.5368 52.2273 21.2288 52.6753 20.8368Z" fill="#231D4F"/>
<path d="M62.2728 24.5328C61.4514 24.1595 60.7794 23.6182 60.2568 22.9088C59.7341 22.1808 59.3421 21.3502 59.0808 20.4168C58.8381 19.4835 58.7168 18.5222 58.7168 17.5328C58.7168 16.2448 58.9501 15.0782 59.4168 14.0328C59.8834 12.9875 60.5648 12.1568 61.4608 11.5408C62.3754 10.9062 63.4954 10.5888 64.8208 10.5888C65.2501 10.5888 65.7448 10.6355 66.3048 10.7288C66.8834 10.8222 67.3501 10.9995 67.7048 11.2608V5.18485H71.0648V24.7848H67.7048V23.6648C67.3874 24.0382 66.9021 24.3368 66.2488 24.5608C65.5954 24.7662 64.9048 24.8688 64.1768 24.8688C63.4674 24.8875 62.8328 24.7755 62.2728 24.5328ZM67.7048 20.8648V14.4248C66.7341 14.0328 65.8194 13.9022 64.9608 14.0328C64.1208 14.1635 63.4301 14.5275 62.8888 15.1248C62.3661 15.7035 62.1048 16.5062 62.1048 17.5328C62.1048 18.7462 62.3661 19.7075 62.8888 20.4168C63.4114 21.1075 64.0928 21.5088 64.9328 21.6208C65.7914 21.7142 66.7154 21.4622 67.7048 20.8648Z" fill="#231D4F"/>
<path d="M96.6209 10.7848L91.8609 24.7848H87.7729L84.8329 15.3488L81.9209 24.7848H77.8329L73.0449 10.7848H76.8249L79.8489 21.0888L83.0969 10.7848H86.5969L89.8449 21.0608L92.8409 10.7848H96.6209Z" fill="#231D4F"/>
<path d="M101.775 24.9248C100.356 24.8502 99.2829 24.4488 98.5549 23.7208C97.8269 22.9742 97.4629 21.9475 97.4629 20.6408C97.4629 19.6888 97.7055 18.8768 98.1909 18.2048C98.6762 17.5142 99.3202 16.9728 100.123 16.5808C100.926 16.1888 101.812 15.9462 102.783 15.8528C103.772 15.7595 104.771 15.8248 105.779 16.0488V15.1808C105.779 14.5835 105.536 14.1542 105.051 13.8928C104.566 13.6315 103.968 13.5102 103.259 13.5288C102.568 13.5475 101.868 13.6875 101.159 13.9488C100.468 14.1915 99.9082 14.5462 99.4789 15.0128L97.6029 12.9688C98.3122 12.2782 99.1522 11.7368 100.123 11.3448C101.094 10.9528 102.092 10.7288 103.119 10.6728C104.164 10.6168 105.144 10.7382 106.059 11.0368C106.992 11.3355 107.758 11.8208 108.355 12.4928C108.822 13.0155 109.083 13.7062 109.139 14.5648C109.195 15.4235 109.223 16.3662 109.223 17.3928V24.7848H105.807V23.4968C105.228 24.0382 104.584 24.4208 103.875 24.6448C103.166 24.8502 102.466 24.9435 101.775 24.9248ZM105.695 20.8368V18.4288C103.754 18.2795 102.4 18.4008 101.635 18.7928C100.888 19.1848 100.515 19.7915 100.515 20.6128C100.515 21.1355 100.692 21.5182 101.047 21.7608C101.42 21.9848 101.878 22.0968 102.419 22.0968C102.979 22.0782 103.548 21.9662 104.127 21.7608C104.724 21.5368 105.247 21.2288 105.695 20.8368Z" fill="#231D4F"/>
<path d="M115.376 24.7848H112.016V5.18485H115.376V24.7848Z" fill="#231D4F"/>
<path d="M120.213 9.13285C119.634 9.13285 119.149 8.93685 118.757 8.54485C118.365 8.15285 118.169 7.66751 118.169 7.08885C118.169 6.52885 118.365 6.05285 118.757 5.66085C119.149 5.26885 119.634 5.07285 120.213 5.07285C120.773 5.07285 121.249 5.26885 121.641 5.66085C122.033 6.05285 122.229 6.52885 122.229 7.08885C122.229 7.66751 122.033 8.15285 121.641 8.54485C121.249 8.93685 120.773 9.13285 120.213 9.13285ZM121.753 24.7848H118.673V10.7848H121.753V24.7848Z" fill="#231D4F"/>
<path d="M137.632 24.7848H134.272V16.6088C134.272 15.8435 134.123 15.2742 133.824 14.9008C133.544 14.5088 133.189 14.2475 132.76 14.1168C132.349 13.9862 131.948 13.9208 131.556 13.9208C131.183 13.9208 130.744 13.9862 130.24 14.1168C129.755 14.2475 129.325 14.5088 128.952 14.9008C128.579 15.2742 128.392 15.8435 128.392 16.6088V24.7848H125.032V10.7848H128.392V11.7928C128.709 11.3635 129.204 11.0648 129.876 10.8968C130.548 10.7102 131.192 10.6168 131.808 10.6168C133.003 10.6168 134.029 10.8688 134.888 11.3728C135.765 11.8768 136.437 12.5768 136.904 13.4728C137.389 14.3688 137.632 15.4142 137.632 16.6088V24.7848Z" fill="#231D4F"/>
</svg>
